<?xml version="1.0" encoding="utf-8"?>
<!-- Generator: Adobe Illustrator 16.0.0, SVG Export Plug-In . SVG Version: 6.00 Build 0)  -->
<!DOCTYPE svg PUBLIC "-//W3C//DTD SVG 1.1//EN" "http://www.w3.org/Graphics/SVG/1.1/DTD/svg11.dtd">
<svg version="1.1" xmlns="http://www.w3.org/2000/svg" xmlns:xlink="http://www.w3.org/1999/xlink" x="0px" y="0px" width="960px"
	 height="560px" viewBox="0 0 960 560" enable-background="new 0 0 960 560" xml:space="preserve">
<g id="Layer_1">
	<rect x="534.5" y="243.5" fill="#D9F0FA" stroke="#E6E6E6" stroke-miterlimit="10" width="425" height="317"/>
	<rect x="534" y="-1" fill="#022F36" width="425" height="243"/>
	<rect y="-1" fill="#ACE1FA" width="535" height="243"/>
	<g>
		<rect x="1073.5" y="24.5" fill="none" stroke="#000000" stroke-miterlimit="10" width="40" height="40"/>
		<rect x="1113.5" y="24.5" fill="none" stroke="#000000" stroke-miterlimit="10" width="25" height="25"/>
		<rect x="1113.5" y="49.5" fill="none" stroke="#000000" stroke-miterlimit="10" width="25" height="15"/>
		<rect x="1123.5" y="49.5" fill="none" stroke="#000000" stroke-miterlimit="10" width="15" height="15"/>
		<rect x="1113.5" y="49.5" fill="none" stroke="#000000" stroke-miterlimit="10" width="10" height="10"/>
		<rect x="1113.5" y="59.5" fill="none" stroke="#000000" stroke-miterlimit="10" width="5" height="5"/>
	</g>
	<circle opacity="0.4" fill="none" stroke="#000000" stroke-width="0.25" stroke-miterlimit="10" cx="1010.5" cy="77.5" r="5"/>
	<circle opacity="0.4" fill="none" stroke="#000000" stroke-width="0.25" stroke-miterlimit="10" cx="1010.5" cy="72" r="2.5"/>
	<circle fill="none" stroke="#000000" stroke-width="0.25" stroke-miterlimit="10" cx="1019.766" cy="44.766" r="19.734"/>
	<circle fill="none" stroke="#000000" stroke-width="0.25" stroke-miterlimit="10" cx="1019.5" cy="45" r="12.5"/>
	<circle fill="none" stroke="#000000" stroke-width="0.25" stroke-miterlimit="10" cx="1019.5" cy="45" r="7.5"/>
	<circle fill="none" stroke="#000000" stroke-width="0.25" stroke-miterlimit="10" cx="1019.5" cy="44.5" r="5"/>
	<circle fill="none" stroke="#000000" stroke-width="0.25" stroke-miterlimit="10" cx="1019.5" cy="45" r="2.5"/>
	<circle fill="none" stroke="#B3B3B3" stroke-miterlimit="10" cx="740.833" cy="408.396" r="64.077"/>
	<path opacity="0.9" fill="none" stroke="#F2F2F2" stroke-miterlimit="10" d="M813.726,335.664
		c-18.307-18.31-43.596-29.636-71.532-29.633c-55.872,0-101.164,45.291-101.164,101.164c0,27.471,10.95,52.385,28.727,70.614"/>
	<g opacity="0.1">
		<path fill="none" d="M740.833,447.803c-14.927,0-29.854-0.012-44.78,0.027c-0.979,0.003-1.177-0.197-1.175-1.176
			c0.034-25.917,0.034-51.834,0-77.75c-0.001-0.979,0.197-1.176,1.175-1.176c29.854,0.033,59.707,0.033,89.561,0
			c0.979,0,1.177,0.197,1.175,1.176c-0.034,25.916-0.034,51.833,0,77.75c0.001,0.979-0.196,1.179-1.175,1.176
			C770.687,447.791,755.76,447.803,740.833,447.803z M741.028,369.696c-0.86-0.078-1.623,0.154-2.356,0.577
			c-12.961,7.474-25.928,14.936-38.887,22.413c-1.608,0.929-1.594,1.11,0.05,2.073c13.053,7.641,26.115,15.267,39.155,22.931
			c1.382,0.812,2.598,0.829,3.977,0.019c13.042-7.659,26.102-15.288,39.153-22.932c1.705-0.998,1.702-1.16-0.022-2.154
			c-12.866-7.421-25.736-14.834-38.601-22.255C742.722,369.922,741.93,369.596,741.028,369.696z M740.96,433.766
			c0.819,0.025,1.443-0.447,2.099-0.83c5.047-2.946,10.093-5.895,15.134-8.852c8.104-4.752,16.191-9.533,24.318-14.245
			c1.358-0.787,1.034-1.169-0.07-1.762c-1.443-0.774-2.889-1.562-4.243-2.478c-1.135-0.768-2.064-0.778-3.28-0.083
			c-10.478,5.992-21.017,11.879-31.475,17.906c-1.812,1.044-3.19,0.976-4.965-0.044c-10.511-6.045-21.089-11.974-31.626-17.973
			c-0.962-0.548-1.747-0.621-2.704-0.009c-1.562,1.001-3.178,1.924-4.807,2.813c-0.955,0.521-1.124,0.893-0.069,1.51
			c13.393,7.826,26.775,15.674,40.163,23.511C739.903,433.505,740.38,433.791,740.96,433.766z M740.986,445.906
			c0.828,0.086,1.466-0.366,2.127-0.745c7.87-4.497,15.739-8.994,23.605-13.497c5.259-3.012,10.497-6.062,15.781-9.031
			c1.287-0.723,1.181-1.164-0.008-1.773c-0.922-0.473-1.891-0.907-2.701-1.537c-1.344-1.043-2.435-0.795-3.831,0.041
			c-11.056,6.619-22.172,13.137-33.24,19.735c-1.236,0.737-2.18,0.765-3.439,0.013c-10.264-6.135-20.568-12.203-30.863-18.284
			c-4.462-2.637-4.452-2.606-8.937,0.032c-1.176,0.691-1.249,1.057,0.003,1.77c13.236,7.543,26.449,15.125,39.667,22.697
			C739.725,445.656,740.292,445.984,740.986,445.906z"/>
		<path fill-rule="evenodd" clip-rule="evenodd" d="M741.028,369.696c0.901-0.101,1.694,0.226,2.469,0.672
			c12.865,7.421,25.735,14.834,38.601,22.255c1.724,0.994,1.727,1.156,0.022,2.154c-13.051,7.644-26.112,15.272-39.153,22.932
			c-1.379,0.811-2.595,0.793-3.977-0.019c-13.04-7.664-26.102-15.29-39.155-22.931c-1.644-0.963-1.659-1.145-0.05-2.073
			c12.959-7.478,25.926-14.939,38.887-22.413C739.405,369.851,740.168,369.618,741.028,369.696z"/>
		<path fill-rule="evenodd" clip-rule="evenodd" d="M740.96,433.764c-0.581,0.027-1.058-0.259-1.525-0.532
			c-13.388-7.837-26.77-15.685-40.163-23.511c-1.055-0.617-0.886-0.989,0.069-1.51c1.629-0.89,3.245-1.812,4.807-2.813
			c0.957-0.612,1.742-0.539,2.704,0.009c10.537,5.999,21.116,11.928,31.626,17.973c1.774,1.02,3.153,1.088,4.965,0.044
			c10.458-6.027,20.997-11.914,31.475-17.906c1.215-0.695,2.145-0.685,3.28,0.083c1.354,0.915,2.8,1.703,4.243,2.478
			c1.104,0.593,1.429,0.975,0.07,1.762c-8.127,4.712-16.214,9.493-24.318,14.245c-5.041,2.957-10.087,5.905-15.134,8.852
			C742.404,433.318,741.779,433.791,740.96,433.764z"/>
		<path fill-rule="evenodd" clip-rule="evenodd" d="M740.986,445.906c-0.694,0.078-1.262-0.25-1.835-0.58
			c-13.218-7.572-26.431-15.154-39.667-22.697c-1.252-0.713-1.179-1.078-0.003-1.77c4.485-2.639,4.475-2.669,8.937-0.032
			c10.295,6.081,20.599,12.149,30.863,18.284c1.259,0.752,2.204,0.725,3.439-0.013c11.067-6.599,22.184-13.116,33.24-19.735
			c1.396-0.836,2.486-1.084,3.831-0.041c0.81,0.63,1.779,1.064,2.701,1.537c1.189,0.609,1.295,1.051,0.008,1.773
			c-5.284,2.969-10.521,6.02-15.781,9.031c-7.866,4.503-15.736,9-23.605,13.497C742.452,445.54,741.814,445.992,740.986,445.906z"/>
	</g>
	<rect x="1306" y="62" width="470" height="448"/>
	<rect x="1398.314" y="93.14" fill="none" width="181.014" height="415.534"/>
	
		<text transform="matrix(-1 0 0 1 1579.3281 262.1577)" opacity="0.4" fill="#F2F2F2" font-family="'OriyaSangamMN'" font-size="270">F</text>
	<g>
		<rect x="759" y="374" fill="#333333" width="6" height="68"/>
		<rect x="725" y="374" fill="#333333" width="40" height="7"/>
		<rect x="730" y="404" fill="#333333" width="29" height="6"/>
	</g>
	<g>
		<circle fill="none" stroke="#999999" stroke-miterlimit="10" cx="745.833" cy="123.396" r="64.077"/>
		<path opacity="0.9" fill="none" stroke="#CCCCCC" stroke-miterlimit="10" d="M818.726,50.664
			c-18.307-18.309-43.596-29.635-71.532-29.633c-55.872,0-101.164,45.292-101.164,101.165c0,27.47,10.95,52.384,28.727,70.614"/>
		<g opacity="0.2">
			<path fill="none" d="M745.833,162.803c-14.927,0-29.854-0.012-44.78,0.027c-0.979,0.003-1.177-0.198-1.175-1.176
				c0.034-25.917,0.034-51.833,0-77.75c-0.001-0.978,0.197-1.176,1.175-1.175c29.854,0.033,59.707,0.033,89.561,0
				c0.979-0.001,1.177,0.196,1.175,1.175c-0.034,25.917-0.034,51.833,0,77.75c0.001,0.978-0.196,1.179-1.175,1.176
				C775.687,162.791,760.76,162.803,745.833,162.803z M746.028,84.696c-0.86-0.078-1.623,0.154-2.356,0.577
				c-12.961,7.474-25.928,14.936-38.887,22.413c-1.608,0.928-1.594,1.111,0.05,2.073c13.053,7.641,26.115,15.267,39.155,22.931
				c1.382,0.812,2.598,0.829,3.977,0.019c13.042-7.66,26.102-15.289,39.153-22.933c1.705-0.998,1.702-1.16-0.022-2.154
				c-12.866-7.42-25.736-14.833-38.601-22.254C747.722,84.921,746.93,84.596,746.028,84.696z M745.96,148.765
				c0.819,0.026,1.443-0.446,2.099-0.83c5.047-2.946,10.093-5.894,15.134-8.851c8.104-4.752,16.191-9.534,24.318-14.246
				c1.358-0.787,1.034-1.168-0.07-1.762c-1.443-0.775-2.889-1.562-4.243-2.478c-1.135-0.767-2.064-0.778-3.28-0.083
				c-10.478,5.992-21.017,11.879-31.475,17.906c-1.812,1.044-3.19,0.976-4.965-0.044c-10.511-6.045-21.089-11.974-31.626-17.973
				c-0.962-0.547-1.747-0.621-2.704-0.008c-1.562,1.001-3.178,1.924-4.807,2.813c-0.955,0.521-1.124,0.893-0.069,1.51
				c13.393,7.827,26.775,15.674,40.163,23.511C744.903,148.505,745.38,148.791,745.96,148.765z M745.986,160.907
				c0.828,0.085,1.466-0.367,2.127-0.746c7.87-4.497,15.739-8.994,23.605-13.498c5.259-3.011,10.497-6.062,15.781-9.03
				c1.287-0.723,1.181-1.164-0.008-1.774c-0.922-0.473-1.891-0.907-2.701-1.537c-1.344-1.044-2.435-0.795-3.831,0.041
				c-11.056,6.62-22.172,13.137-33.24,19.735c-1.236,0.737-2.18,0.765-3.439,0.013c-10.264-6.135-20.568-12.203-30.863-18.284
				c-4.462-2.637-4.452-2.606-8.937,0.032c-1.176,0.691-1.249,1.057,0.003,1.77c13.236,7.542,26.449,15.124,39.667,22.697
				C744.725,160.656,745.292,160.984,745.986,160.907z"/>
			<path fill-rule="evenodd" clip-rule="evenodd" d="M746.028,84.696c0.901-0.1,1.694,0.225,2.469,0.672
				c12.865,7.421,25.735,14.834,38.601,22.254c1.724,0.994,1.727,1.156,0.022,2.154c-13.051,7.644-26.112,15.273-39.153,22.933
				c-1.379,0.81-2.595,0.793-3.977-0.019c-13.04-7.664-26.102-15.29-39.155-22.931c-1.644-0.962-1.659-1.145-0.05-2.073
				c12.959-7.477,25.926-14.939,38.887-22.413C744.405,84.851,745.168,84.618,746.028,84.696z"/>
			<path fill-rule="evenodd" clip-rule="evenodd" d="M745.96,148.763c-0.581,0.028-1.058-0.258-1.525-0.532
				c-13.388-7.837-26.77-15.684-40.163-23.511c-1.055-0.617-0.886-0.989,0.069-1.51c1.629-0.889,3.245-1.812,4.807-2.813
				c0.957-0.613,1.742-0.539,2.704,0.008c10.537,6,21.116,11.928,31.626,17.973c1.774,1.02,3.153,1.088,4.965,0.044
				c10.458-6.027,20.997-11.914,31.475-17.906c1.215-0.695,2.145-0.685,3.28,0.083c1.354,0.916,2.8,1.703,4.243,2.478
				c1.104,0.593,1.429,0.975,0.07,1.762c-8.127,4.712-16.214,9.494-24.318,14.246c-5.041,2.957-10.087,5.905-15.134,8.851
				C747.404,148.319,746.779,148.792,745.96,148.763z"/>
			<path fill-rule="evenodd" clip-rule="evenodd" d="M745.986,160.907c-0.694,0.078-1.262-0.251-1.835-0.58
				c-13.218-7.573-26.431-15.155-39.667-22.697c-1.252-0.713-1.179-1.079-0.003-1.77c4.485-2.638,4.475-2.669,8.937-0.032
				c10.295,6.082,20.599,12.149,30.863,18.284c1.259,0.752,2.204,0.724,3.439-0.013c11.067-6.599,22.184-13.116,33.24-19.735
				c1.396-0.836,2.486-1.084,3.831-0.041c0.81,0.629,1.779,1.063,2.701,1.537c1.189,0.61,1.295,1.051,0.008,1.774
				c-5.284,2.968-10.521,6.019-15.781,9.03c-7.866,4.503-15.736,9-23.605,13.498C747.452,160.54,746.814,160.992,745.986,160.907z"
				/>
		</g>
		<g>
			<rect x="764" y="88" fill="#F2F2F2" width="6" height="69"/>
			<rect x="729" y="88" fill="#F2F2F2" width="41" height="7"/>
			<rect x="734" y="119" fill="#F2F2F2" width="30" height="6"/>
		</g>
		<path opacity="0.4" fill="#FFFFFF" stroke="#E6E6E6" stroke-miterlimit="10" d="M818.735,50.679
			c17.777,18.23,28.727,43.144,28.727,70.614c0,55.873-45.292,101.165-101.164,101.165c-27.936,0.002-53.225-11.324-71.532-29.633
			l-0.009-0.016L818.726,50.664"/>
		<rect x="712.958" y="88.014" fill="none" width="52.562" height="70.323"/>
		<text transform="matrix(1 0 0 1 712.958 157.0059)" fill="#F2F2F2" font-family="'OriyaSangamMN'" font-size="110.2123">L</text>
	</g>
	<path opacity="0.4" fill="#FFFFFF" stroke="#F2F2F2" stroke-miterlimit="10" d="M813.735,335.68
		c17.777,18.229,28.727,43.144,28.727,70.613c0,55.873-45.292,101.165-101.164,101.165c-27.936,0.003-53.225-11.324-71.532-29.633
		l-0.009-0.016l143.968-142.146"/>
	<rect x="707.958" y="373.233" fill="none" width="52.562" height="70.323"/>
	<text transform="matrix(1 0 0 1 707.958 442.2256)" fill="#333333" font-family="'OriyaSangamMN'" font-size="110.2123">L</text>
	<g>
		<rect x="265" y="87" fill="#333333" width="6" height="68"/>
		<g>
			<circle fill="none" stroke="#B3B3B3" stroke-miterlimit="10" cx="246.833" cy="121.396" r="64.077"/>
			<path opacity="0.9" fill="none" stroke="#F2F2F2" stroke-miterlimit="10" d="M319.726,48.664
				c-18.307-18.31-43.596-29.636-71.532-29.633c-55.872,0-101.164,45.291-101.164,101.164c0,27.471,10.95,52.385,28.727,70.614"/>
			<g opacity="0.1">
				<path fill="none" d="M246.833,160.803c-14.927,0-29.854-0.012-44.78,0.027c-0.979,0.003-1.177-0.197-1.175-1.176
					c0.034-25.917,0.034-51.834,0-77.75c-0.001-0.979,0.197-1.176,1.175-1.176c29.854,0.033,59.707,0.033,89.561,0
					c0.979,0,1.177,0.197,1.175,1.176c-0.034,25.916-0.034,51.833,0,77.75c0.001,0.979-0.196,1.179-1.175,1.176
					C276.687,160.791,261.76,160.803,246.833,160.803z M247.028,82.696c-0.86-0.078-1.623,0.154-2.356,0.577
					c-12.961,7.474-25.928,14.936-38.887,22.413c-1.608,0.929-1.594,1.11,0.05,2.073c13.053,7.641,26.115,15.267,39.155,22.931
					c1.382,0.812,2.598,0.829,3.977,0.019c13.042-7.659,26.102-15.288,39.153-22.932c1.705-0.998,1.702-1.16-0.022-2.154
					c-12.866-7.421-25.736-14.834-38.601-22.255C248.722,82.922,247.93,82.596,247.028,82.696z M246.96,146.766
					c0.819,0.025,1.443-0.447,2.099-0.83c5.047-2.946,10.093-5.895,15.134-8.852c8.104-4.752,16.191-9.533,24.318-14.245
					c1.358-0.787,1.034-1.169-0.07-1.762c-1.443-0.774-2.889-1.562-4.243-2.478c-1.135-0.768-2.064-0.778-3.28-0.083
					c-10.478,5.992-21.017,11.879-31.475,17.906c-1.812,1.044-3.19,0.976-4.965-0.044c-10.511-6.045-21.089-11.974-31.626-17.973
					c-0.962-0.548-1.747-0.621-2.704-0.009c-1.562,1.001-3.178,1.924-4.807,2.813c-0.955,0.521-1.124,0.893-0.069,1.51
					c13.393,7.826,26.775,15.674,40.163,23.511C245.903,146.505,246.38,146.791,246.96,146.766z M246.986,158.906
					c0.828,0.086,1.466-0.366,2.127-0.745c7.87-4.497,15.739-8.994,23.605-13.497c5.259-3.012,10.497-6.062,15.781-9.031
					c1.287-0.723,1.181-1.164-0.008-1.773c-0.922-0.473-1.891-0.907-2.701-1.537c-1.344-1.043-2.435-0.795-3.831,0.041
					c-11.056,6.619-22.172,13.137-33.24,19.735c-1.236,0.737-2.18,0.765-3.439,0.013c-10.264-6.135-20.568-12.203-30.863-18.284
					c-4.462-2.637-4.452-2.606-8.937,0.032c-1.176,0.691-1.249,1.057,0.003,1.77c13.236,7.543,26.449,15.125,39.667,22.697
					C245.725,158.656,246.292,158.984,246.986,158.906z"/>
				<path fill-rule="evenodd" clip-rule="evenodd" d="M247.028,82.696c0.901-0.101,1.694,0.226,2.469,0.672
					c12.865,7.421,25.735,14.834,38.601,22.255c1.724,0.994,1.727,1.156,0.022,2.154c-13.051,7.644-26.112,15.272-39.153,22.932
					c-1.379,0.811-2.595,0.793-3.977-0.019c-13.04-7.664-26.102-15.29-39.155-22.931c-1.644-0.963-1.659-1.145-0.05-2.073
					c12.959-7.478,25.926-14.939,38.887-22.413C245.405,82.851,246.168,82.618,247.028,82.696z"/>
				<path fill-rule="evenodd" clip-rule="evenodd" d="M246.96,146.764c-0.581,0.027-1.058-0.259-1.525-0.532
					c-13.388-7.837-26.77-15.685-40.163-23.511c-1.055-0.617-0.886-0.989,0.069-1.51c1.629-0.89,3.245-1.812,4.807-2.813
					c0.957-0.612,1.742-0.539,2.704,0.009c10.537,5.999,21.116,11.928,31.626,17.973c1.774,1.02,3.153,1.088,4.965,0.044
					c10.458-6.027,20.997-11.914,31.475-17.906c1.215-0.695,2.145-0.685,3.28,0.083c1.354,0.915,2.8,1.703,4.243,2.478
					c1.104,0.593,1.429,0.975,0.07,1.762c-8.127,4.712-16.214,9.493-24.318,14.245c-5.041,2.957-10.087,5.905-15.134,8.852
					C248.404,146.318,247.779,146.791,246.96,146.764z"/>
				<path fill-rule="evenodd" clip-rule="evenodd" d="M246.986,158.906c-0.694,0.078-1.262-0.25-1.835-0.58
					c-13.218-7.572-26.431-15.154-39.667-22.697c-1.252-0.713-1.179-1.078-0.003-1.77c4.485-2.639,4.475-2.669,8.937-0.032
					c10.295,6.081,20.599,12.149,30.863,18.284c1.259,0.752,2.204,0.725,3.439-0.013c11.067-6.599,22.184-13.116,33.24-19.735
					c1.396-0.836,2.486-1.084,3.831-0.041c0.81,0.63,1.779,1.064,2.701,1.537c1.189,0.609,1.295,1.051,0.008,1.773
					c-5.284,2.969-10.521,6.02-15.781,9.031c-7.866,4.503-15.736,9-23.605,13.497C248.452,158.54,247.814,158.992,246.986,158.906z"
					/>
			</g>
			<rect x="213.958" y="86.233" fill="none" width="52.562" height="70.323"/>
			<text transform="matrix(1 0 0 1 213.958 155.2256)" fill="#333333" font-family="'OriyaSangamMN'" font-size="110.2123">L</text>
			<rect x="231" y="87" fill="#333333" width="40" height="7"/>
			<rect x="236" y="117" fill="#333333" width="35" height="6"/>
			<path opacity="0.4" fill="#FFFFFF" stroke="#F2F2F2" stroke-miterlimit="10" d="M319.735,48.68
				c17.777,18.229,28.727,43.144,28.727,70.613c0,55.873-45.292,101.165-101.164,101.165c-27.936,0.003-53.225-11.324-71.532-29.633
				l-0.009-0.016L319.726,48.664"/>
		</g>
	</g>
	<g>
		<polygon fill="#808080" stroke="#808080" stroke-miterlimit="10" points="1222.24,66.284 1154.724,104.737 1223.482,144.5 
			1224.084,144.5 1292.843,104.737 1225.326,66.068 		"/>
		<polygon fill="#FFFFFF" stroke="#FFFFFF" stroke-miterlimit="10" points="1222.24,53.072 1154.724,92.635 1223.482,133.5 
			1224.084,133.5 1292.843,92.635 1225.326,53.411 		"/>
		<polygon fill="#808080" stroke="#808080" stroke-miterlimit="10" points="1222.24,43.162 1154.724,83.178 1223.482,124.5 
			1224.084,124.5 1292.843,83.178 1225.326,43.726 		"/>
		<polygon fill="#FFFFFF" stroke="#FFFFFF" stroke-miterlimit="10" points="1222.24,29.951 1154.724,67.075 1223.482,105.5 
			1224.084,105.5 1292.843,67.075 1225.326,29.068 		"/>
		<polygon fill="#808080" stroke="#808080" stroke-miterlimit="10" points="1222.24,16.74 1154.724,55.966 1223.482,96.5 
			1224.084,96.5 1292.843,55.966 1225.326,16.912 		"/>
	</g>
</g>
<g id="Layer_2">
</g>
</svg>
