<svg xmlns="http://www.w3.org/2000/svg" viewBox="0 0 441.19 441.19"><title>Artboard 1</title><g id="Layer_2" data-name="Layer 2"><circle cx="218.708" cy="224.012" r="132.354" fill="none" stroke="#969696" stroke-miterlimit="10"/><g opacity="0.2"><path d="M219.111,144.075a8.252,8.252,0,0,1,5.1,1.388q39.861,22.992,79.733,45.969c3.561,2.054,3.566,2.388.045,4.45q-40.436,23.683-80.873,47.367a7.341,7.341,0,0,1-8.214-.039q-40.4-23.745-80.877-47.365c-3.4-1.988-3.426-2.364-.1-4.282q40.151-23.168,80.324-46.294A8.044,8.044,0,0,1,219.111,144.075Z" fill-rule="evenodd"/><path d="M218.972,276.408a5.706,5.706,0,0,1-3.151-1.1q-41.48-24.281-82.958-48.563c-2.179-1.275-1.829-2.044.142-3.118,3.365-1.838,6.7-3.744,9.928-5.811,1.976-1.265,3.6-1.114,5.585.019,21.765,12.391,43.616,24.637,65.326,37.123,3.665,2.106,6.514,2.247,10.255.091,21.6-12.45,43.37-24.609,65.013-36.986,2.511-1.437,4.43-1.414,6.775.172a100.255,100.255,0,0,0,8.764,5.117c2.282,1.225,2.951,2.013.145,3.64-16.787,9.732-33.491,19.608-50.23,29.423q-15.619,9.163-31.261,18.284C221.953,275.489,220.663,276.466,218.972,276.408Z" fill-rule="evenodd"/><path d="M219.024,301.49a6.15,6.15,0,0,1-3.79-1.2q-40.953-23.461-81.935-46.883c-2.587-1.472-2.436-2.227-.006-3.654,9.265-5.451,9.242-5.514,18.46-.067q31.9,18.842,63.748,37.768c2.6,1.554,4.552,1.5,7.1-.025,22.86-13.631,45.823-27.093,68.659-40.766,2.883-1.726,5.135-2.238,7.912-.084a34.723,34.723,0,0,0,5.58,3.175c2.457,1.258,2.675,2.17.018,3.663-10.915,6.132-21.733,12.434-32.6,18.654q-24.372,13.953-48.759,27.879C222.053,300.733,220.734,301.668,219.024,301.49Z" fill-rule="evenodd"/></g><path d="M367.7,73.491a207.383,207.383,0,0,1,60.933,147.1c0,114.894-93.14,208.034-208.034,208.034S12.561,335.489,12.561,220.6,105.7,12.561,220.595,12.561a207.383,207.383,0,0,1,147.1,60.93" fill="none" stroke="#cbcac9" stroke-miterlimit="10"/><path d="M367.7,73.493,73.493,367.7a207.382,207.382,0,0,0,147.1,60.932c114.894,0,208.034-93.14,208.034-208.034A207.383,207.383,0,0,0,367.7,73.493Z" fill="#cbcac9" opacity="0.4"/><polygon points="186.695 151.608 186.695 166.434 258.695 166.434 258.695 214.434 196.695 214.434 196.695 227.434 258.695 227.434 258.695 293.434 270.695 293.434 270.695 151.608 186.695 151.608" fill="#f2f2f2"/><path d="M182.674,151.608V279.775h71.482v13.659h-84.23V151.608Z" fill="#f2f2f2"/></g></svg>